<mxfile host="app.diagrams.net" modified="2024-01-14T12:59:58.627Z" agent="Mozilla/5.0 (Windows NT 10.0; Win64; x64) AppleWebKit/537.36 (KHTML, like Gecko) Chrome/120.0.0.0 Safari/537.36" etag="T6PF12jb3aniSjl6MTpI" version="22.1.18" type="github">
  <diagram name="Page-1" id="iFs2Ykep6b5Abgb_iXca">
    <mxGraphModel dx="1644" dy="514" grid="1" gridSize="10" guides="1" tooltips="1" connect="1" arrows="1" fold="1" page="1" pageScale="1" pageWidth="850" pageHeight="1100" math="0" shadow="0">
      <root>
        <mxCell id="0" />
        <mxCell id="1" parent="0" />
        <mxCell id="Q11yuWKkDRzSTnYD1hw9-22" value="" style="edgeStyle=orthogonalEdgeStyle;rounded=0;orthogonalLoop=1;jettySize=auto;html=1;" edge="1" parent="1" source="Q11yuWKkDRzSTnYD1hw9-20" target="Q11yuWKkDRzSTnYD1hw9-21">
          <mxGeometry relative="1" as="geometry" />
        </mxCell>
        <mxCell id="Q11yuWKkDRzSTnYD1hw9-24" value="" style="edgeStyle=orthogonalEdgeStyle;rounded=0;orthogonalLoop=1;jettySize=auto;html=1;" edge="1" parent="1" source="Q11yuWKkDRzSTnYD1hw9-20" target="Q11yuWKkDRzSTnYD1hw9-23">
          <mxGeometry relative="1" as="geometry" />
        </mxCell>
        <mxCell id="Q11yuWKkDRzSTnYD1hw9-26" value="" style="edgeStyle=orthogonalEdgeStyle;rounded=0;orthogonalLoop=1;jettySize=auto;html=1;" edge="1" parent="1" source="Q11yuWKkDRzSTnYD1hw9-20" target="Q11yuWKkDRzSTnYD1hw9-25">
          <mxGeometry relative="1" as="geometry" />
        </mxCell>
        <mxCell id="Q11yuWKkDRzSTnYD1hw9-20" value="Scafold" style="rounded=0;whiteSpace=wrap;html=1;" vertex="1" parent="1">
          <mxGeometry x="250" y="210" width="120" height="60" as="geometry" />
        </mxCell>
        <mxCell id="Q11yuWKkDRzSTnYD1hw9-21" value="MaterialApp" style="rounded=0;whiteSpace=wrap;html=1;" vertex="1" parent="1">
          <mxGeometry x="250" y="380" width="120" height="60" as="geometry" />
        </mxCell>
        <mxCell id="Q11yuWKkDRzSTnYD1hw9-33" value="" style="edgeStyle=orthogonalEdgeStyle;rounded=0;orthogonalLoop=1;jettySize=auto;html=1;" edge="1" parent="1" source="Q11yuWKkDRzSTnYD1hw9-23" target="Q11yuWKkDRzSTnYD1hw9-32">
          <mxGeometry relative="1" as="geometry" />
        </mxCell>
        <mxCell id="Q11yuWKkDRzSTnYD1hw9-23" value="Center" style="rounded=0;whiteSpace=wrap;html=1;" vertex="1" parent="1">
          <mxGeometry x="460" y="390" width="120" height="60" as="geometry" />
        </mxCell>
        <mxCell id="Q11yuWKkDRzSTnYD1hw9-28" value="" style="edgeStyle=orthogonalEdgeStyle;rounded=0;orthogonalLoop=1;jettySize=auto;html=1;" edge="1" parent="1" source="Q11yuWKkDRzSTnYD1hw9-25" target="Q11yuWKkDRzSTnYD1hw9-27">
          <mxGeometry relative="1" as="geometry" />
        </mxCell>
        <mxCell id="Q11yuWKkDRzSTnYD1hw9-29" value="" style="edgeStyle=orthogonalEdgeStyle;rounded=0;orthogonalLoop=1;jettySize=auto;html=1;" edge="1" parent="1" source="Q11yuWKkDRzSTnYD1hw9-25" target="Q11yuWKkDRzSTnYD1hw9-27">
          <mxGeometry relative="1" as="geometry" />
        </mxCell>
        <mxCell id="Q11yuWKkDRzSTnYD1hw9-30" style="edgeStyle=orthogonalEdgeStyle;rounded=0;orthogonalLoop=1;jettySize=auto;html=1;" edge="1" parent="1" source="Q11yuWKkDRzSTnYD1hw9-25">
          <mxGeometry relative="1" as="geometry">
            <mxPoint x="150" y="530" as="targetPoint" />
          </mxGeometry>
        </mxCell>
        <mxCell id="Q11yuWKkDRzSTnYD1hw9-25" value="Appbar" style="whiteSpace=wrap;html=1;rounded=0;" vertex="1" parent="1">
          <mxGeometry x="30" y="380" width="120" height="60" as="geometry" />
        </mxCell>
        <mxCell id="Q11yuWKkDRzSTnYD1hw9-27" value="Text" style="rounded=0;whiteSpace=wrap;html=1;" vertex="1" parent="1">
          <mxGeometry x="-50" y="520" width="120" height="60" as="geometry" />
        </mxCell>
        <mxCell id="Q11yuWKkDRzSTnYD1hw9-31" value="Color" style="rounded=0;whiteSpace=wrap;html=1;" vertex="1" parent="1">
          <mxGeometry x="100" y="520" width="120" height="60" as="geometry" />
        </mxCell>
        <mxCell id="Q11yuWKkDRzSTnYD1hw9-35" value="" style="edgeStyle=orthogonalEdgeStyle;rounded=0;orthogonalLoop=1;jettySize=auto;html=1;" edge="1" parent="1" source="Q11yuWKkDRzSTnYD1hw9-32" target="Q11yuWKkDRzSTnYD1hw9-34">
          <mxGeometry relative="1" as="geometry" />
        </mxCell>
        <mxCell id="Q11yuWKkDRzSTnYD1hw9-32" value="Image" style="whiteSpace=wrap;html=1;rounded=0;" vertex="1" parent="1">
          <mxGeometry x="460" y="530" width="120" height="60" as="geometry" />
        </mxCell>
        <mxCell id="Q11yuWKkDRzSTnYD1hw9-34" value="Image" style="whiteSpace=wrap;html=1;rounded=0;" vertex="1" parent="1">
          <mxGeometry x="460" y="670" width="120" height="60" as="geometry" />
        </mxCell>
      </root>
    </mxGraphModel>
  </diagram>
</mxfile>
